<svg width="56" height="56" viewBox="0 0 56 56" fill="none" xmlns="http://www.w3.org/2000/svg">
<g clip-path="url(#clip0_114_882)">
<path fill-rule="evenodd" clip-rule="evenodd" d="M28 0C12.5606 0 0 12.5607 0 28C0 43.4393 12.5606 56 28 56C43.4394 56 56 43.4394 56 28C56 12.5606 43.4394 0 28 0ZM28 33.1406C26.3974 33.1388 24.8609 32.5014 23.7277 31.3683C22.5944 30.2351 21.9568 28.6987 21.9548 27.0961V19.279C21.9616 17.6801 22.6015 16.1491 23.7345 15.021C24.8675 13.8928 26.4012 13.2594 28.0001 13.2594C29.5989 13.2594 31.1326 13.8928 32.2656 15.021C33.3986 16.1491 34.0385 17.6801 34.0453 19.279V27.0961C34.0433 28.6987 33.4057 30.2351 32.2724 31.3683C31.1391 32.5014 29.6026 33.1388 28 33.1406ZM24.1423 19.279C24.1434 18.2562 24.5501 17.2757 25.2734 16.5525C25.9966 15.8294 26.9772 15.4227 28 15.4219C29.0227 15.423 30.0032 15.8297 30.7264 16.5529C31.4496 17.276 31.8564 18.2565 31.8575 19.2792V27.0963C31.8521 28.1159 31.4433 29.0919 30.7204 29.8109C29.9975 30.5299 29.0194 30.9336 27.9998 30.9336C26.9803 30.9336 26.0021 30.5299 25.2793 29.8109C24.5564 29.0919 24.1476 28.1159 24.1421 27.0963V19.279H24.1423ZM37.7683 26.9741C37.7655 29.3746 36.8801 31.6904 35.2805 33.4803C33.6809 35.2703 31.4789 36.4095 29.0938 36.6811V40.5781H32.7403C33.0304 40.5781 33.3086 40.6934 33.5137 40.8985C33.7188 41.1036 33.8341 41.3818 33.8341 41.6719C33.8341 41.962 33.7188 42.2402 33.5137 42.4453C33.3086 42.6504 33.0304 42.7656 32.7403 42.7656H23.2597C22.9696 42.7656 22.6914 42.6504 22.4863 42.4453C22.2812 42.2402 22.1659 41.962 22.1659 41.6719C22.1659 41.3818 22.2812 41.1036 22.4863 40.8985C22.6914 40.6934 22.9696 40.5781 23.2597 40.5781H26.9062V36.681C24.521 36.4095 22.3189 35.2704 20.7191 33.4805C19.1193 31.6906 18.2336 29.3749 18.2306 26.9743C18.2306 26.6842 18.3459 26.406 18.551 26.2009C18.7561 25.9958 19.0343 25.8805 19.3244 25.8805C19.6145 25.8805 19.8927 25.9958 20.0978 26.2009C20.3029 26.406 20.4181 26.6842 20.4181 26.9743C20.4181 28.985 21.2169 30.9133 22.6386 32.3351C24.0604 33.7569 25.9888 34.5556 27.9995 34.5556C30.0101 34.5556 31.9385 33.7569 33.3603 32.3351C34.782 30.9133 35.5808 28.985 35.5808 26.9743C35.5808 26.6842 35.696 26.406 35.9011 26.2009C36.1063 25.9958 36.3844 25.8805 36.6745 25.8805C36.9646 25.8805 37.2428 25.9958 37.4479 26.2009C37.653 26.406 37.7683 26.6842 37.7683 26.9743V26.9741Z" fill="url(#paint0_linear_114_882)"/>
</g>
<defs>
<linearGradient id="paint0_linear_114_882" x1="28" y1="56" x2="28" y2="0" gradientUnits="userSpaceOnUse">
<stop stop-color="#06C781"/>
<stop offset="1" stop-color="#02FFA3"/>
</linearGradient>
<clipPath id="clip0_114_882">
<rect width="56" height="56" fill="white"/>
</clipPath>
</defs>
</svg>
