<svg width="20" height="20" viewBox="0 0 20 20" fill="none" xmlns="http://www.w3.org/2000/svg">
<g clip-path="url(#clip0_114_880)">
<path d="M15.1159 8.23704C15.1119 8.23247 15.108 8.22786 15.1042 8.22313C15.0111 8.10852 14.891 8.08594 14.8277 8.08266C14.7644 8.07934 14.6426 8.08962 14.5383 8.19407L8.76775 13.9736C8.5526 14.189 8.20881 14.205 7.97463 14.0106L5.54595 11.9938C5.40302 11.8751 5.19661 11.8764 5.05524 11.9968C5.05345 11.9983 5.05169 11.9998 5.04981 12.0013L0 16.1952V17.4443C0 18.8535 1.14645 20 2.55567 20H17.4443C18.8536 20 20 18.8535 20 17.4443V13.8866L15.1159 8.23704Z" fill="black"/>
<path d="M6.29593 3.63873C5.37929 3.63873 4.63354 4.38448 4.63354 5.30108C4.63354 6.21768 5.37933 6.96343 6.29593 6.96343C7.21257 6.96343 7.95828 6.21768 7.95828 5.30108C7.95828 4.38444 7.21257 3.63873 6.29593 3.63873Z" fill="black"/>
<path d="M17.4444 0H2.55567C1.14653 0 0 1.14645 0 2.55567V14.6638L4.2947 11.0971C4.87306 10.6074 5.71513 10.6031 6.29849 11.0875L8.31373 12.7609L13.7046 7.36169C14.0163 7.04962 14.448 6.88372 14.888 6.90615C15.3251 6.92857 15.7343 7.1349 16.0122 7.47259L20 12.0853V2.55567C20 1.14645 18.8535 0 17.4444 0ZM6.29587 8.14146C4.72966 8.14146 3.45548 6.86728 3.45548 5.3011C3.45548 3.73493 4.72974 2.46075 6.29587 2.46075C7.86209 2.46075 9.13623 3.73497 9.13623 5.3011C9.13623 6.86728 7.86209 8.14146 6.29587 8.14146Z" fill="black"/>
</g>
<defs>
<clipPath id="clip0_114_880">
<rect width="20" height="20" fill="white"/>
</clipPath>
</defs>
</svg>
