<svg width="23" height="75" viewBox="0 0 23 75" fill="none" xmlns="http://www.w3.org/2000/svg">
<g clip-path="url(#clip0_114_1162)">
<path d="M0 3.15697C0 1.90469 1.01517 0.889526 2.26744 0.889526H20.407C21.6593 0.889526 22.6744 1.90469 22.6744 3.15697V74.9593H0V3.15697Z" fill="#F5F5F5"/>
<rect opacity="0.45" x="12.4712" y="0.889526" width="74.0698" height="12.4709" transform="rotate(90 12.4712 0.889526)" fill="#E6E5E5"/>
<rect y="73.8256" width="0.377907" height="3.02326" rx="0.188953" transform="rotate(-90 0 73.8256)" fill="#737373"/>
<rect y="70.4244" width="0.377907" height="1.13372" rx="0.188953" transform="rotate(-90 0 70.4244)" fill="#737373"/>
<rect y="67.0233" width="0.377907" height="1.13372" rx="0.188953" transform="rotate(-90 0 67.0233)" fill="#737373"/>
<rect y="63.6221" width="0.377907" height="3.02326" rx="0.188953" transform="rotate(-90 0 63.6221)" fill="#737373"/>
<rect y="60.2209" width="0.377907" height="1.13372" rx="0.188953" transform="rotate(-90 0 60.2209)" fill="#737373"/>
<rect y="56.8198" width="0.377907" height="1.13372" rx="0.188953" transform="rotate(-90 0 56.8198)" fill="#737373"/>
<rect y="53.4186" width="0.377907" height="3.02326" rx="0.188953" transform="rotate(-90 0 53.4186)" fill="#737373"/>
<rect y="50.0175" width="0.377907" height="1.13372" rx="0.188953" transform="rotate(-90 0 50.0175)" fill="#737373"/>
<rect y="46.6163" width="0.377907" height="1.13372" rx="0.188953" transform="rotate(-90 0 46.6163)" fill="#737373"/>
<rect y="43.2151" width="0.377907" height="3.02326" rx="0.188953" transform="rotate(-90 0 43.2151)" fill="#737373"/>
<rect y="39.814" width="0.377907" height="1.13372" rx="0.188953" transform="rotate(-90 0 39.814)" fill="#737373"/>
<rect y="36.4128" width="0.377907" height="1.13372" rx="0.188953" transform="rotate(-90 0 36.4128)" fill="#737373"/>
<rect y="33.0116" width="0.377907" height="3.02326" rx="0.188953" transform="rotate(-90 0 33.0116)" fill="#737373"/>
<rect y="29.6105" width="0.377907" height="1.13372" rx="0.188953" transform="rotate(-90 0 29.6105)" fill="#737373"/>
<rect y="26.2093" width="0.377907" height="1.13372" rx="0.188953" transform="rotate(-90 0 26.2093)" fill="#737373"/>
<rect y="22.8081" width="0.377907" height="3.02326" rx="0.188953" transform="rotate(-90 0 22.8081)" fill="#737373"/>
<rect y="19.407" width="0.377907" height="1.13372" rx="0.188953" transform="rotate(-90 0 19.407)" fill="#737373"/>
<rect y="16.0058" width="0.377907" height="1.13372" rx="0.188953" transform="rotate(-90 0 16.0058)" fill="#737373"/>
<rect y="12.6046" width="0.377907" height="3.02326" rx="0.188953" transform="rotate(-90 0 12.6046)" fill="#737373"/>
<rect y="9.20349" width="0.377907" height="1.13372" rx="0.188953" transform="rotate(-90 0 9.20349)" fill="#737373"/>
<rect y="5.80231" width="0.377907" height="1.13372" rx="0.188953" transform="rotate(-90 0 5.80231)" fill="#737373"/>
<rect y="2.40112" width="0.377907" height="3.02326" rx="0.188953" transform="rotate(-90 0 2.40112)" fill="#737373"/>
</g>
<path d="M0.188953 3.15697C0.188953 2.00905 1.11952 1.07848 2.26744 1.07848H20.407C21.5549 1.07848 22.4855 2.00905 22.4855 3.15697V74.7703H0.188953V3.15697Z" stroke="#D9D9D9" stroke-width="0.377907"/>
<defs>
<clipPath id="clip0_114_1162">
<path d="M0 3.15697C0 1.90469 1.01517 0.889526 2.26744 0.889526H20.407C21.6593 0.889526 22.6744 1.90469 22.6744 3.15697V74.9593H0V3.15697Z" fill="white"/>
</clipPath>
</defs>
</svg>
