<svg width="40" height="40" viewBox="0 0 40 40" fill="none" xmlns="http://www.w3.org/2000/svg">
<rect width="40" height="40" rx="8" fill="#F1F3F5"/>
<path d="M19.5 10C22.0812 10 22.4032 10.0095 23.4159 10.057C24.4276 10.1045 25.1164 10.2632 25.7225 10.4988C26.3495 10.7401 26.8777 11.0668 27.4059 11.5941C27.889 12.069 28.2628 12.6435 28.5012 13.2775C28.7359 13.8826 28.8955 14.5723 28.943 15.5841C28.9876 16.5968 29 16.9188 29 19.5C29 22.0812 28.9905 22.4032 28.943 23.4159C28.8955 24.4276 28.7359 25.1164 28.5012 25.7225C28.2634 26.3569 27.8896 26.9315 27.4059 27.4059C26.9309 27.8888 26.3564 28.2626 25.7225 28.5012C25.1173 28.7359 24.4276 28.8955 23.4159 28.943C22.4032 28.9876 22.0812 29 19.5 29C16.9188 29 16.5968 28.9905 15.5841 28.943C14.5723 28.8955 13.8836 28.7359 13.2775 28.5012C12.6432 28.2633 12.0687 27.8894 11.5941 27.4059C11.1109 26.9311 10.7371 26.3566 10.4988 25.7225C10.2632 25.1173 10.1045 24.4276 10.057 23.4159C10.0123 22.4032 10 22.0812 10 19.5C10 16.9188 10.0095 16.5968 10.057 15.5841C10.1045 14.5714 10.2632 13.8836 10.4988 13.2775C10.7365 12.6431 11.1104 12.0685 11.5941 11.5941C12.0688 11.1108 12.6433 10.7369 13.2775 10.4988C13.8836 10.2632 14.5714 10.1045 15.5841 10.057C16.5968 10.0123 16.9188 10 19.5 10ZM19.5 14.75C18.2402 14.75 17.032 15.2504 16.1412 16.1412C15.2504 17.032 14.75 18.2402 14.75 19.5C14.75 20.7598 15.2504 21.968 16.1412 22.8588C17.032 23.7496 18.2402 24.25 19.5 24.25C20.7598 24.25 21.968 23.7496 22.8588 22.8588C23.7496 21.968 24.25 20.7598 24.25 19.5C24.25 18.2402 23.7496 17.032 22.8588 16.1412C21.968 15.2504 20.7598 14.75 19.5 14.75ZM25.675 14.5125C25.675 14.1976 25.5499 13.8955 25.3272 13.6728C25.1045 13.4501 24.8024 13.325 24.4875 13.325C24.1726 13.325 23.8705 13.4501 23.6478 13.6728C23.4251 13.8955 23.3 14.1976 23.3 14.5125C23.3 14.8274 23.4251 15.1295 23.6478 15.3522C23.8705 15.5749 24.1726 15.7 24.4875 15.7C24.8024 15.7 25.1045 15.5749 25.3272 15.3522C25.5499 15.1295 25.675 14.8274 25.675 14.5125ZM19.5 16.65C20.2559 16.65 20.9808 16.9503 21.5153 17.4847C22.0497 18.0192 22.35 18.7441 22.35 19.5C22.35 20.2559 22.0497 20.9808 21.5153 21.5153C20.9808 22.0497 20.2559 22.35 19.5 22.35C18.7441 22.35 18.0192 22.0497 17.4847 21.5153C16.9503 20.9808 16.65 20.2559 16.65 19.5C16.65 18.7441 16.9503 18.0192 17.4847 17.4847C18.0192 16.9503 18.7441 16.65 19.5 16.65Z" fill="#878889"/>
</svg>
