<svg width="20" height="20" viewBox="0 0 20 20" fill="none" xmlns="http://www.w3.org/2000/svg">
<g clip-path="url(#clip0_114_866)">
<path d="M15.0259 13.8475L18.5951 17.4159L17.4159 18.595L13.8476 15.0259C12.5199 16.0902 10.8684 16.6691 9.16675 16.6667C5.02675 16.6667 1.66675 13.3067 1.66675 9.16669C1.66675 5.02669 5.02675 1.66669 9.16675 1.66669C13.3067 1.66669 16.6667 5.02669 16.6667 9.16669C16.6692 10.8684 16.0903 12.5198 15.0259 13.8475ZM13.3542 13.2292C14.4118 12.1416 15.0025 10.6837 15.0001 9.16669C15.0001 5.94335 12.3892 3.33335 9.16675 3.33335C5.94341 3.33335 3.33341 5.94335 3.33341 9.16669C3.33341 12.3892 5.94341 15 9.16675 15C10.6838 15.0024 12.1417 14.4118 13.2292 13.3542L13.3542 13.2292Z" fill="#ABB3BB"/>
</g>
<defs>
<clipPath id="clip0_114_866">
<rect width="20" height="20" fill="white"/>
</clipPath>
</defs>
</svg>
