<svg width="360" height="296" viewBox="0 0 360 296" fill="none" xmlns="http://www.w3.org/2000/svg">
<g clip-path="url(#clip0_114_538)">
<path d="M124.919 199.668C114.408 199.668 104.587 196.742 96.1451 191.746L47.1768 274.719C69.9643 288.216 96.5313 295.972 124.919 295.972C158.162 295.972 188.923 285.318 214 267.294L158.935 188.24C149.445 195.389 137.692 199.668 124.919 199.668Z" fill="#75EEC2"/>
<path d="M68.2537 143C68.2537 111.699 93.6069 86.3323 124.891 86.3323C135.402 86.3323 145.224 89.2582 153.665 94.2542L202.661 11.2538C179.874 -2.21613 153.307 -10 124.919 -10C40.4729 -10 -28 58.5091 -28 143C-28 199.088 2.18103 248.11 47.1767 274.746L96.145 191.773C79.482 181.919 68.2813 163.785 68.2813 143H68.2537Z" fill="#06C781"/>
<path d="M124.919 199.668C156.204 199.668 181.557 174.301 181.557 143C181.557 122.215 170.356 104.108 153.693 94.2266L96.145 191.746C104.587 196.742 114.408 199.668 124.919 199.668Z" fill="#303438"/>
</g>
<defs>
<clipPath id="clip0_114_538">
<rect width="360" height="296" fill="white"/>
</clipPath>
</defs>
</svg>
