<?xml version="1.0" encoding="UTF-8"?>
<svg xmlns="http://www.w3.org/2000/svg" xmlns:xlink="http://www.w3.org/1999/xlink" width="40px" height="40px" viewBox="0 0 40 40" version="1.1">
<g id="surface1">
<path style=" stroke:none;fill-rule:nonzero;fill:rgb(0%,0%,0%);fill-opacity:1;" d="M 22.042969 3.777344 L 17.042969 3.777344 L 17.042969 10.027344 L 22.042969 10.027344 Z M 20.855469 8.839844 L 18.226562 8.839844 L 18.226562 4.960938 L 20.855469 4.960938 Z M 20.855469 8.839844 "/>
<path style=" stroke:none;fill-rule:nonzero;fill:rgb(0%,0%,0%);fill-opacity:1;" d="M 25.625 29.402344 L 13.125 29.402344 C 12.78125 29.402344 12.5 29.679688 12.5 30.027344 C 12.5 30.371094 12.78125 30.652344 13.125 30.652344 L 25.625 30.652344 C 25.96875 30.652344 26.25 30.371094 26.25 30.027344 C 26.25 29.679688 25.96875 29.402344 25.625 29.402344 Z M 25.625 29.402344 "/>
<path style=" stroke:none;fill-rule:nonzero;fill:rgb(0%,0%,0%);fill-opacity:1;" d="M 25.625 24.402344 L 13.125 24.402344 C 12.78125 24.402344 12.5 24.679688 12.5 25.027344 C 12.5 25.371094 12.78125 25.652344 13.125 25.652344 L 25.625 25.652344 C 25.96875 25.652344 26.25 25.371094 26.25 25.027344 C 26.25 24.679688 25.96875 24.402344 25.625 24.402344 Z M 25.625 24.402344 "/>
<path style=" stroke:none;fill-rule:nonzero;fill:rgb(0%,0%,0%);fill-opacity:1;" d="M 7.5 35.027344 L 31.25 35.027344 L 31.25 18.777344 L 7.5 18.777344 Z M 8.75 20.027344 L 30 20.027344 L 30 33.777344 L 8.75 33.777344 Z M 8.75 20.027344 "/>
<path style=" stroke:none;fill-rule:nonzero;fill:rgb(0%,0%,0%);fill-opacity:1;" d="M 30.863281 0.0273438 L 30.851562 0 L 4.375 0 C 2.996094 0 1.875 1.121094 1.875 2.5 L 1.875 37.5 C 1.875 38.878906 2.996094 40 4.375 40 L 35.625 40 C 37.003906 40 38.125 38.878906 38.125 37.5 L 38.125 7.308594 Z M 24.976562 1.300781 L 24.976562 12.5 L 8.773438 12.5 L 8.773438 1.300781 Z M 36.875 37.5 C 36.875 38.1875 36.3125 38.75 35.625 38.75 L 4.375 38.75 C 3.6875 38.75 3.125 38.1875 3.125 37.5 L 3.125 2.5 C 3.125 1.8125 3.6875 1.25 4.375 1.25 L 7.5 1.25 L 7.5 13.777344 L 26.25 13.777344 L 26.25 1.25 L 30.320312 1.25 L 36.875 7.828125 Z M 36.875 37.5 "/>
</g>
</svg>
