<svg width="24" height="24" viewBox="0 0 24 24" fill="none" xmlns="http://www.w3.org/2000/svg">
<path d="M12 18.0001C10.4087 18.0001 8.88258 17.3679 7.75736 16.2427C6.63214 15.1175 6 13.5914 6 12.0001C6 10.4088 6.63214 8.88264 7.75736 7.75742C8.88258 6.6322 10.4087 6.00006 12 6.00006C13.5913 6.00006 15.1174 6.6322 16.2426 7.75742C17.3679 8.88264 18 10.4088 18 12.0001C18 13.5914 17.3679 15.1175 16.2426 16.2427C15.1174 17.3679 13.5913 18.0001 12 18.0001ZM12 16.0001C13.0609 16.0001 14.0783 15.5786 14.8284 14.8285C15.5786 14.0783 16 13.0609 16 12.0001C16 10.9392 15.5786 9.92178 14.8284 9.17163C14.0783 8.42149 13.0609 8.00006 12 8.00006C10.9391 8.00006 9.92172 8.42149 9.17157 9.17163C8.42143 9.92178 8 10.9392 8 12.0001C8 13.0609 8.42143 14.0783 9.17157 14.8285C9.92172 15.5786 10.9391 16.0001 12 16.0001ZM11 1.00006H13V4.00006H11V1.00006ZM11 20.0001H13V23.0001H11V20.0001ZM3.515 4.92906L4.929 3.51506L7.05 5.63606L5.636 7.05006L3.515 4.93006V4.92906ZM16.95 18.3641L18.364 16.9501L20.485 19.0711L19.071 20.4851L16.95 18.3641ZM19.071 3.51406L20.485 4.92906L18.364 7.05006L16.95 5.63606L19.071 3.51506V3.51406ZM5.636 16.9501L7.05 18.3641L4.929 20.4851L3.515 19.0711L5.636 16.9501ZM23 11.0001V13.0001H20V11.0001H23ZM4 11.0001V13.0001H1V11.0001H4Z" fill="black"/>
</svg>
