<svg width="32" height="32" viewBox="0 0 32 32" fill="none" xmlns="http://www.w3.org/2000/svg">
<path d="M2.31567 10.0842V19.0526C2.31567 21.6 4.37883 23.6632 6.9262 23.6632H20.3157C21.263 23.6632 22.042 22.8842 22.042 21.9369V12.9474C22.042 10.4 19.9788 8.33685 17.4315 8.33685H4.04199C3.09462 8.33685 2.31567 9.09475 2.31567 10.0211V10.0842Z" fill="black"/>
<path d="M23.5789 20.0632L27.2842 23.3053C27.8737 23.8316 28.8 23.7684 29.3263 23.179C29.5579 22.9053 29.6842 22.5684 29.6842 22.2316V9.76843C29.6842 8.96843 29.0316 8.33685 28.2526 8.3158C27.8947 8.3158 27.5579 8.44211 27.3053 8.67369L23.5789 11.9368C23.2631 12.2105 23.0947 12.6105 23.0947 13.0316V18.9895C23.0947 19.3895 23.2842 19.7895 23.5789 20.0632Z" fill="black"/>
</svg>
