<svg width="64" height="64" viewBox="0 0 64 64" fill="none" xmlns="http://www.w3.org/2000/svg">
<g clip-path="url(#clip0_114_629)">
<path d="M27.2962 32C27.2962 26.0671 32.1154 21.2591 38.062 21.2591C40.06 21.2591 41.9268 21.8136 43.5315 22.7606L52.8447 7.0285C48.5132 4.47537 43.4633 3 38.0673 3C22.0155 3 9 15.9854 9 32C9 42.6311 14.7369 51.9228 23.2898 56.9715L32.5978 41.2446C29.4305 39.3769 27.3014 35.9396 27.3014 32H27.2962Z" fill="#06C781"/>
<path d="M38.0673 42.7409C44.014 42.7409 48.8332 37.9329 48.8332 32C48.8332 28.0604 46.7041 24.6284 43.5368 22.7554L32.5979 41.2394C34.2026 42.1864 36.0694 42.7409 38.0673 42.7409Z" fill="#E7EBEF"/>
<path d="M38.0673 42.7409C36.0693 42.7409 34.2025 42.1864 32.5978 41.2394L23.2898 56.9663C27.6213 59.5246 32.6712 60.9948 38.0673 60.9948C44.3862 60.9948 50.2332 58.9753 55 55.5589L44.5331 40.575C42.7291 41.93 40.4952 42.7409 38.0673 42.7409Z" fill="#75EEC2"/>
</g>
<defs>
<clipPath id="clip0_114_629">
<rect width="46" height="58" fill="white" transform="translate(9 3)"/>
</clipPath>
</defs>
</svg>
