<svg width="22" height="76" viewBox="0 0 22 76" fill="none" xmlns="http://www.w3.org/2000/svg">
<path d="M6.04663 15.1163H15.8722C15.8722 15.1163 14.979 10.9593 14.0857 8.40842C13.4022 6.45631 11.9339 3.67425 11.2823 2.47576C11.1416 2.21692 10.7772 2.21692 10.6365 2.47576C9.98491 3.67425 8.51667 6.45631 7.8331 8.40842C6.93987 10.9593 6.04663 15.1163 6.04663 15.1163Z" fill="#212121"/>
<path d="M7.55814 8.69183H14.3605L21.9186 28.7209V75.5814H0V28.7209L7.55814 8.69183Z" fill="url(#paint0_linear_114_1160)"/>
<path d="M0 28.5664L0.903493 26.9413C1.71252 25.486 3.76172 25.3699 4.72993 26.7245L6.04651 28.5664V75.9593H0V28.5664Z" fill="#D9D9D9"/>
<path d="M15.8721 29.0777L17.2405 26.9643C18.2459 25.4115 20.5874 25.6513 21.2573 27.3756L21.9186 29.0777V75.3924H15.8721V29.0777Z" fill="#D9D9D9"/>
<path d="M6.80225 28.9099L8.55062 26.6052C9.76041 25.0105 12.158 25.0105 13.3678 26.6052L15.1162 28.9099V75.5814H6.80225V28.9099Z" fill="#D9D9D9"/>
<defs>
<linearGradient id="paint0_linear_114_1160" x1="21.9186" y1="42.0062" x2="9.80281e-07" y2="42.0062" gradientUnits="userSpaceOnUse">
<stop stop-color="#DADBDA"/>
<stop offset="0.53125" stop-color="#F6F5F5"/>
<stop offset="1" stop-color="#EDECEC"/>
</linearGradient>
</defs>
</svg>
