<svg width="25" height="25" viewBox="0 0 25 25" fill="none" xmlns="http://www.w3.org/2000/svg">
<path d="M12.105 24.2301C18.7369 24.2301 24.2121 18.7549 24.2121 12.123C24.2121 5.50291 18.7273 0.0180664 12.0954 0.0180664C5.47523 0.0180664 0 5.50291 0 12.123C0 18.7549 5.48484 24.2301 12.105 24.2301Z" fill="black"/>
<path d="M6.61958 17.164L11.1381 5.66507C11.5 4.76039 12.7037 4.73906 13.0635 5.64585L17.582 17.164C17.9554 18.0947 16.9532 18.7828 16.1706 17.9981L12.4145 14.2441C12.227 14.0449 11.9863 14.0449 11.7967 14.2441L8.0427 17.9981C7.2484 18.7828 6.24622 18.0947 6.61958 17.164Z" fill="white"/>
</svg>
